HIERARCHY
ROOT hip
{
	OFFSET 0.000000 0.000000 0.000000 
	CHANNELS 6 Xposition Yposition Zposition Xrotation Zrotation Yrotation
	JOINT abdomen
	{
		OFFSET 0.000000 3.402643 0.000000 
		CHANNELS 3 Xrotation Zrotation Yrotation
		JOINT chest
		{
			OFFSET 0.000000 8.438565 -0.680529 
			CHANNELS 3 Xrotation Zrotation Yrotation
			JOINT neck
			{
				OFFSET 0.000000 10.207942 -0.272212 
				CHANNELS 3 Xrotation Zrotation Yrotation
				JOINT head
				{
					OFFSET 0.000000 3.130431 0.000000 
					CHANNELS 3 Xrotation Zrotation Yrotation
					End Site
					{
						OFFSET 0.000000 3.130435 0.000000 
					}
				}
			}
			JOINT lCollar
			{
				OFFSET 3.470700 6.669187 -0.816635 
				CHANNELS 3 Yrotation Zrotation Xrotation
				JOINT lShldr
				{
					OFFSET 3.198488 0.000000 0.000000 
					CHANNELS 3 Zrotation Yrotation Xrotation
					JOINT lForeArm
					{
						OFFSET 10.139888 0.000000 0.000000 
						CHANNELS 3 Yrotation Zrotation Xrotation
						JOINT lHand
						{
							OFFSET 8.370511 0.000000 0.000000 
							CHANNELS 3 Zrotation Yrotation Xrotation
							End Site
							{
								OFFSET 4.083176 0.000000 0.000000 
							}
						}
					}
				}
			}
			JOINT rCollar
			{
				OFFSET -3.470700 6.669187 -0.816635 
				CHANNELS 3 Yrotation Zrotation Xrotation
				JOINT rShldr
				{
					OFFSET -3.198488 0.000000 0.000000 
					CHANNELS 3 Zrotation Yrotation Xrotation
					JOINT rForeArm
					{
						OFFSET -10.139888 0.000000 0.000000 
						CHANNELS 3 Yrotation Zrotation Xrotation
						JOINT rHand
						{
							OFFSET -8.370511 0.000000 0.000000 
							CHANNELS 3 Zrotation Yrotation Xrotation
							End Site
							{
								OFFSET -4.083176 0.000000 0.000000 
							}
						}
					}
				}
			}
		}
	}
	JOINT lThigh
	{
		OFFSET 5.308129 -1.633274 1.361059 
		CHANNELS 3 Xrotation Zrotation Yrotation
		JOINT lShin
		{
			OFFSET -2.041588 -20.007561 0.000000 
			CHANNELS 3 Xrotation Zrotation Yrotation
			JOINT lFoot
			{
				OFFSET 0.000000 -19.190928 -1.224953 
				CHANNELS 3 Xrotation Yrotation Zrotation
				End Site
				{
					OFFSET 0.000000 -2.449906 4.627600 
				}
			}
		}
	}
	JOINT rThigh
	{
		OFFSET -5.308129 -1.633274 1.361059 
		CHANNELS 3 Xrotation Zrotation Yrotation
		JOINT rShin
		{
			OFFSET 2.041588 -20.007561 0.000000 
			CHANNELS 3 Xrotation Zrotation Yrotation
			JOINT rFoot
			{
				OFFSET 0.000000 -19.190928 -1.224953 
				CHANNELS 3 Xrotation Yrotation Zrotation
				End Site
				{
					OFFSET 0.000000 -2.449906 4.627600 
				}
			}
		}
	}
}
MOTION
Frames: 19
Frame Time: 0.033333
4.411330 41.810284 -0.603915 -2.178412 -5.611202 -77.706886 0.000000 0.000000 0.000000 14.537294 -8.218406 -20.111673 -28.283064 9.469915 11.162041 13.349848 0.574197 15.428629 -3.519355 9.157742 6.311733 -72.530212 -16.682751 -21.775724 -6.090032 -2.025666 58.975735 9.934003 -5.534917 -8.917011 3.090466 -14.082293 8.028685 91.188782 -3.079890 19.484886 38.585320 -20.000622 -1.131559 5.184324 4.877947 -6.976486 -32.273384 25.661575 13.544994 53.011703 -5.552265 -32.676765 -2.373225 -0.775994 9.634050 17.692699 -29.959705 -29.488226 26.837692 -4.544357 16.390015 -27.721373 4.885027 -16.511368 
4.365007 41.801666 -0.621564 -2.187540 -5.425755 -77.625092 0.000000 0.000000 0.000000 14.507008 -8.200581 -19.995220 -28.258848 9.595849 10.995832 13.115287 0.272591 15.412182 -3.519355 9.157742 6.311733 -72.405396 -16.844002 -22.032471 -5.978841 -2.196595 60.138687 9.214033 -6.509212 -8.818836 3.090466 -14.082293 8.028685 91.224602 -3.064290 19.293741 38.660618 -19.836140 -1.333224 4.319884 4.172134 -7.174607 -32.490532 25.557020 13.372710 53.064480 -5.510985 -32.576588 -2.430531 -0.789412 9.693353 17.566813 -29.862581 -29.294193 26.879993 -4.653386 16.055735 -27.997158 4.934950 -16.504242 
4.304441 41.799496 -0.624356 -2.363104 -5.161646 -77.336967 0.000000 0.000000 0.000000 14.334450 -8.339489 -20.198950 -28.032677 9.380052 11.104365 12.929793 0.399251 15.342773 -3.519355 9.157742 6.311733 -72.178703 -16.852398 -22.450916 -5.834802 -2.415333 61.019756 8.917184 -7.130919 -8.776135 3.090466 -14.082293 8.028685 91.718430 -2.674452 19.299757 38.052841 -20.247093 -0.993151 5.571803 4.104692 -7.008412 -32.714138 25.272621 13.335414 52.907894 -5.543270 -32.516804 -1.954760 -0.702423 9.169417 17.670996 -29.968185 -29.516409 26.807516 -4.534300 15.906137 -28.129030 4.945014 -16.464195 
4.222160 41.806305 -0.672427 -2.489674 -4.927009 -77.208694 0.000000 0.000000 0.000000 14.085411 -8.547727 -20.183613 -27.582485 9.031276 11.199500 12.607758 0.740377 15.149607 -3.519355 9.157742 6.311733 -71.988716 -16.822603 -23.119530 -5.754910 -2.474530 61.432388 8.793935 -7.729169 -8.765079 3.090466 -14.082293 8.028685 92.480530 -2.488522 19.213459 37.112823 -21.005327 -0.060465 5.386854 4.088070 -7.036291 -32.816845 25.227879 13.509616 52.562485 -5.591198 -32.420845 -0.740458 -0.551256 7.816824 17.575895 -29.920815 -29.371525 26.805935 -4.650639 15.658096 -28.031845 4.877080 -16.359997 
4.107566 41.799965 -0.751064 -2.518142 -4.673237 -76.875465 0.000000 0.000000 0.000000 13.955001 -8.495572 -20.276266 -27.506994 8.366470 11.366666 12.442207 1.169248 14.824726 -3.519355 9.157742 6.311733 -71.851646 -16.809647 -24.077362 -5.655077 -2.554444 62.197258 9.016179 -7.777879 -8.806887 3.090466 -14.082293 8.028685 92.863441 -2.709377 18.292269 37.292366 -20.754641 0.510813 5.600622 4.246945 -6.980910 -33.017727 25.205292 13.450201 52.472805 -5.660282 -32.337704 -0.699584 -0.537790 7.883914 17.524879 -29.586840 -28.995010 26.915548 -4.880998 15.043353 -28.439114 4.931942 -16.315422 
3.965151 41.779816 -0.835332 -2.830500 -4.369684 -76.278938 0.000000 0.000000 0.000000 13.660339 -8.810226 -20.755146 -26.922794 8.141318 11.403806 11.924557 1.199156 14.698674 -3.519355 9.157742 6.311733 -71.744926 -16.527266 -24.995728 -5.639755 -2.458344 62.267841 10.103275 -7.207154 -8.983906 3.090466 -14.082293 8.028685 92.948112 -3.270091 17.755167 38.125099 -20.020489 -0.066422 5.646466 3.996995 -7.007452 -33.211483 24.803076 13.273274 52.425331 -5.689024 -32.644272 -0.666314 -0.539072 7.893136 17.800037 -29.597836 -29.228897 27.118607 -4.870529 14.451411 -28.835815 5.004672 -16.281307 
3.802955 41.785965 -0.957877 -3.075310 -4.358973 -76.046005 0.000000 0.000000 0.000000 13.670137 -9.066435 -20.818207 -26.670010 7.858665 11.462260 11.787913 1.287073 14.563991 -3.519355 9.157742 6.311733 -71.591988 -16.393847 -25.741901 -5.705750 -2.269524 61.798950 9.522256 -7.896633 -8.897626 3.090466 -14.082293 8.028685 93.369820 -3.719128 17.478111 38.332813 -19.999340 0.778403 5.702801 4.222116 -6.971842 -32.984573 24.761324 13.329721 52.264767 -5.727956 -32.721642 -0.412261 -0.514524 7.687978 18.149879 -29.490198 -29.309435 27.174004 -4.917515 14.061620 -29.204414 5.047117 -16.313196 
3.633709 41.786152 -1.093054 -3.192066 -4.173225 -75.666519 0.000000 0.000000 0.000000 13.463420 -9.350025 -21.075588 -26.526546 7.741868 11.465761 11.836909 1.404013 14.464292 -3.519355 9.157742 6.311733 -71.260361 -16.159973 -26.006119 -5.685544 -2.306553 62.346050 9.411443 -8.158031 -8.878366 3.090466 -14.082293 8.028685 93.666191 -4.093813 17.495729 38.253666 -19.978939 0.250825 5.933103 4.403101 -6.916456 -33.034344 24.615990 13.171964 52.110611 -5.648741 -32.729244 -0.541934 -0.523691 7.634896 18.510365 -29.293947 -29.528769 27.082933 -4.740448 13.643416 -29.566946 5.111821 -16.317499 
3.471515 41.780899 -1.248910 -3.132818 -4.046698 -75.658157 0.000000 0.000000 0.000000 13.440160 -9.512633 -20.924957 -26.506538 7.663028 11.372368 11.582927 1.404351 14.350648 -3.519355 9.157742 6.311733 -70.951523 -16.129202 -25.917292 -5.654052 -2.340961 61.956577 9.619431 -8.317169 -8.923985 3.090466 -14.082293 8.028685 93.974953 -4.245960 17.424639 37.925446 -20.124479 0.344550 5.877740 4.513561 -6.917733 -32.993603 24.789797 13.069052 52.014763 -5.493931 -32.947151 -0.938140 -0.546164 7.676263 18.478880 -29.097286 -29.440887 27.290159 -4.682767 13.684286 -29.790560 5.141730 -16.333055 
3.334348 41.804699 -1.381202 -3.200706 -3.880674 -75.838341 0.000000 0.000000 0.000000 13.285355 -9.851804 -20.546896 -26.600790 7.492827 11.259780 11.700354 1.550469 14.127077 -3.519355 9.157742 6.311733 -70.749237 -16.154015 -26.018984 -5.663929 -2.359409 62.492973 9.267019 -8.246578 -8.856692 3.090466 -14.082293 8.028685 94.533699 -4.042079 17.343309 36.690228 -20.909643 0.642367 5.761524 4.704101 -6.909764 -32.904091 24.748930 12.908524 51.798325 -5.414140 -32.179958 -1.088117 -0.553917 7.864975 18.367073 -29.081429 -29.320154 27.331121 -4.732320 13.945697 -29.864841 5.173395 -16.369577 
3.181380 41.826328 -1.515671 -3.161229 -3.793064 -76.255966 0.000000 0.000000 0.000000 13.244874 -10.072410 -19.917093 -26.888033 7.274566 11.179425 11.837214 1.608765 13.919247 -3.519355 9.157742 6.311733 -70.489563 -16.254923 -25.874630 -5.537902 -2.571047 62.846840 8.856873 -8.607756 -8.784184 3.090466 -14.082293 8.028685 94.610878 -3.960060 17.200418 36.358078 -21.016605 0.138992 5.666502 4.542496 -6.945631 -32.837196 24.926355 12.782052 51.858849 -5.247200 -31.524712 -1.325548 -0.571807 7.946950 18.100847 -28.962181 -29.011480 27.327772 -4.857814 13.966172 -29.859821 5.151784 -16.326767 
2.995337 41.833656 -1.641340 -3.199950 -3.675916 -76.279427 0.000000 0.000000 0.000000 13.121592 -10.210757 -19.739901 -26.909584 7.048571 11.114701 11.847078 1.667249 13.717763 -3.519355 9.157742 6.311733 -70.418045 -16.216936 -25.789841 -5.515773 -2.638904 63.150059 8.500734 -8.863154 -8.726928 3.090466 -14.082293 8.028685 94.689224 -3.958673 17.458830 36.058548 -21.296234 0.405969 5.612236 4.850441 -6.910524 -32.837276 24.877659 12.551062 51.837406 -4.996516 -31.197426 -1.249704 -0.562194 7.687024 18.234171 -28.842758 -29.100834 27.315172 -4.788146 13.845062 -29.938915 5.176373 -16.321901 
2.805229 41.805740 -1.755793 -3.208756 -3.393122 -76.382484 0.000000 0.000000 0.000000 12.697583 -10.284979 -19.629253 -26.776999 6.808207 11.239898 11.906116 1.901137 13.635340 -3.519355 9.157742 6.311733 -70.465942 -16.019484 -25.692799 -5.494108 -2.689466 63.228504 8.186463 -8.856641 -8.670218 3.090466 -14.082293 8.028685 94.188812 -4.242591 17.724022 36.889256 -20.677589 -0.308422 5.866397 4.728992 -6.890955 -33.026707 24.940720 12.360870 51.985550 -4.856720 -30.955641 -1.340526 -0.568365 7.633975 18.053780 -28.719912 -28.868078 27.423983 -4.886408 13.647748 -30.215565 5.198783 -16.296511 
2.610104 41.784164 -1.876161 -3.364846 -3.265857 -76.575974 0.000000 0.000000 0.000000 12.559760 -10.557734 -19.497343 -26.873018 6.614934 11.347885 12.170703 2.241747 13.557959 -3.519355 9.157742 6.311733 -70.354851 -15.903904 -25.794777 -5.504239 -2.684718 63.364784 7.802953 -9.125813 -8.594054 3.090466 -14.082293 8.028685 94.204552 -4.195960 17.884546 37.170971 -20.514387 -0.154149 6.016788 4.780139 -6.862657 -32.958851 24.999887 12.348983 52.120502 -4.789293 -30.754269 -1.543373 -0.574842 7.604023 18.064537 -28.768732 -28.912689 27.463194 -4.954901 13.593376 -30.213717 5.219388 -16.317217 
2.443130 41.760841 -2.028704 -3.256172 -2.915216 -76.855919 0.000000 0.000000 0.000000 12.241577 -10.799758 -19.125784 -27.056959 6.673205 11.206194 12.405282 2.250901 13.470117 -3.519355 9.157742 6.311733 -69.951767 -16.004732 -25.879568 -5.420027 -2.828758 63.689198 7.767897 -9.574235 -8.597445 3.090466 -14.082293 8.028685 94.981369 -3.683175 17.799940 36.080769 -21.151608 0.035262 6.146251 4.976285 -6.817266 -33.130432 25.483276 12.542044 52.247692 -4.859831 -30.663376 -1.640147 -0.570120 7.681431 17.560783 -28.559887 -28.473366 27.618729 -5.120503 13.399425 -30.378366 5.233358 -16.331825 
2.190091 41.695641 -2.148364 -3.450830 -2.602701 -76.503426 0.000000 0.000000 0.000000 12.184398 -11.098449 -19.382629 -27.256021 6.463778 11.157431 12.396150 2.484788 13.270405 -3.519355 9.157742 6.311733 -69.659523 -16.045403 -26.040827 -5.450783 -2.801481 64.000473 7.291312 -9.945020 -8.507165 3.090466 -14.082293 8.028685 95.282700 -3.811191 17.695396 36.177345 -20.986738 0.061055 6.239615 5.285655 -6.773617 -33.382549 25.403173 12.419160 52.559574 -4.840586 -30.816841 -1.890177 -0.614757 7.920976 17.697321 -28.383841 -28.377317 27.902523 -5.296596 12.647022 -30.894627 5.295577 -16.267677 
1.907718 41.613735 -2.252929 -3.488887 -2.193197 -75.706261 0.000000 0.000000 0.000000 12.626067 -11.175586 -20.044735 -28.821529 6.288489 11.035532 13.198644 2.745069 13.033259 -3.519355 9.157742 6.311733 -69.170609 -16.380331 -25.974728 -5.470972 -2.782078 63.687294 7.082839 -9.786238 -8.461318 3.090466 -14.082293 8.028685 95.577957 -4.027133 17.654613 36.456463 -20.893106 0.480414 6.431067 5.530160 -6.709235 -33.997643 25.344625 12.161301 53.125977 -4.831175 -31.439299 -1.998913 -0.639817 8.228583 18.155653 -27.915293 -28.393078 27.845989 -5.258419 11.713110 -31.489666 5.355859 -16.193464 
1.569936 41.464409 -2.267928 -3.781071 -1.753989 -74.483765 0.000000 0.000000 0.000000 13.216197 -11.435683 -21.065620 -30.292477 6.045194 11.001334 13.659592 3.064226 12.819942 -3.519355 9.157742 6.311733 -68.522537 -16.693960 -25.968744 -5.365814 -2.947585 63.515240 7.125172 -10.086086 -8.468137 3.090466 -14.082293 8.028685 95.589661 -4.582338 17.483231 37.213287 -20.483904 1.113675 6.694323 5.755363 -6.645146 -34.706505 24.813936 11.778075 53.969402 -4.829646 -31.946970 -2.727777 -0.727702 8.861971 19.246979 -27.704809 -29.010572 27.523045 -4.994660 11.045634 -32.024490 5.430144 -16.131145 
1.209921 41.258453 -2.180680 -4.229229 -1.051816 -73.174187 0.000000 0.000000 0.000000 13.683248 -11.994205 -22.224272 -31.590319 5.994872 10.813109 14.148870 3.120125 12.627076 -3.519355 9.157742 6.311733 -67.803955 -16.911438 -26.334740 -5.344308 -2.999861 63.935596 6.865709 -10.397728 -8.418775 3.090466 -14.082293 8.028685 95.156891 -5.305624 17.219181 38.699345 -19.468870 0.748718 6.892651 5.270732 -6.678110 -35.492809 24.203678 11.743107 55.030857 -5.006920 -32.148224 -3.572168 -0.853845 9.378794 20.060728 -27.847925 -29.751535 27.745943 -4.828257 9.903929 -32.406902 5.454131 -16.032917 
